<svg version="1" xmlns="http://www.w3.org/2000/svg" width="278.667" height="278.667" viewBox="0 0 209.000000 209.000000"><path d="M85.5 10.5c-18.5 4.1-35.4 13.2-48.1 26-12.3 12.5-20 25.3-25 42-2.2 7.5-2.7 11.5-3.1 24-.4 13.7-.2 15.9 2.1 25 4.6 17.8 13 32.9 25.4 45.3C55.3 191.5 78.3 201 105 201c24.2 0 42.9-6.7 62.6-22.5 5.9-4.8 5.8-4.8 11-11 10.3-12.7 16.1-24 19.9-38.9 3.3-13.1 3.5-33.1.5-45.2-5.1-20-12.4-32.8-27-47.5-12.4-12.4-29.7-21.5-48.3-25.5-8.5-1.8-30-1.7-38.2.1zm32.9 49.6c7.1 2.4 16.3 8.5 20.5 13.6 1.7 2 4.7 7.1 6.7 11.1 3.2 6.5 3.8 8.6 4.2 16.7.7 14.4-3.2 25.9-12.2 35.3-18.8 19.9-46.1 20.1-64.7.5-9.6-10.1-13.5-21.3-12.6-36.6.4-7.5 1-9.9 4-16 4.6-9.1 8.4-13.8 15.5-18.6 13.2-8.8 24.7-10.6 38.6-6z"/></svg>